<svg width="400" height="154" version="1.1" viewBox="0 0 716.35 411.68" xml:space="preserve" xmlns="http://www.w3.org/2000/svg"><g transform="matrix(2.3127 0 0 -2.3127 -176.48 218.46)"><g transform="matrix(.13263 0 0 .13263 -127.01 -189.02)"><path d="m1408.5 2023.4h-67.23c-101.66 0-200.05-67.23-200.05-262.35 0-188.57 90.19-249.24 200.05-249.24h67.23zm-104.94-616.54-200.05-449.27h-145.93l219.72 480.44c-103.3 52.47-172.17 147.57-172.17 323.02 0 245.95 155.77 368.93 341.06 368.93h188.56v-1172.4h-126.25v449.27h-104.94" fill="#ee252c"/><path d="m3987.8 1370.8c0 259.08 100.03 424.69 293.52 424.69 73.78 0 116.41-19.68 152.49-42.63l-18.04-121.34c-34.43 29.52-83.62 57.39-136.09 57.39-91.83 0-157.41-103.3-157.41-311.55 0-206.6 49.18-324.66 152.49-324.66 62.3 0 109.86 24.59 139.37 50.83l29.51-95.1c-44.27-37.719-96.74-62.309-172.17-62.309-177.09 0-283.67 142.65-283.67 424.68zm-373.85-1.64v-411.56h-127.9v826.42h127.9v-382.06l198.4 382.06h129.55l-204.97-388.62 234.48-437.8h-139.38zm-601.77 77.07h211.52c0 141.02-22.96 244.32-96.74 244.32-78.71 0-106.58-96.74-114.78-244.32zm141.01-500.11c-170.52 0-275.47 136.09-275.47 390.25 0 265.63 73.79 459.12 249.24 459.12 137.74 0 227.92-103.3 227.92-383.7v-70.5h-344.34c0-186.93 52.47-285.32 154.13-285.32 72.15 0 129.54 32.8 162.33 55.76l29.52-98.38c-52.47-40.998-121.34-67.229-203.33-67.229zm-544.38 734.59h-142.66v-14.75c0-173.81-8.2-427.97-77.06-603.42h219.72zm191.84-885.45h-114.78v162.34h-354.18v-162.34h-114.78v267.28h50.84c75.42 175.45 83.62 431.25 83.62 650.97v70.51h383.7v-721.48h65.58zm-657.52 988.76v-826.42h-126.26v370.57h-190.21v-370.57h-127.89v826.42h127.89v-350.9h190.21v350.9h126.26" fill="#040606"/></g></g></svg>
